<svg width="24" height="24" viewBox="0 0 24 24" fill="none" xmlns="http://www.w3.org/2000/svg">
<g clip-path="url(#clip0_4006_7092)">
<path d="M4.5 3.75L19.5 20.25" stroke="#131313" stroke-width="1.5" stroke-linecap="round" stroke-linejoin="round"/>
<path d="M14.5232 14.7746C13.7872 15.4437 12.8156 15.793 11.822 15.7457C10.8285 15.6984 9.89446 15.2584 9.22537 14.5224C8.55627 13.7864 8.20695 12.8148 8.25425 11.8213C8.30154 10.8278 8.74158 9.8937 9.47755 9.22461" stroke="#131313" stroke-width="1.5" stroke-linecap="round" stroke-linejoin="round"/>
<path d="M12.7061 8.31641C13.5033 8.46908 14.2295 8.87632 14.7755 9.47696C15.3216 10.0776 15.658 10.8392 15.7342 11.6473" stroke="#131313" stroke-width="1.5" stroke-linecap="round" stroke-linejoin="round"/>
<path d="M19.5575 15.8531C21.6012 14.0231 22.5003 12 22.5003 12C22.5003 12 19.5003 5.25001 12.0003 5.25001C11.3508 5.24912 10.7023 5.3018 10.0615 5.40751" stroke="#131313" stroke-width="1.5" stroke-linecap="round" stroke-linejoin="round"/>
<path d="M6.9375 6.43164C3.11531 8.36664 1.5 12.0004 1.5 12.0004C1.5 12.0004 4.5 18.7504 12 18.7504C13.7574 18.7642 15.4927 18.3593 17.0625 17.5691" stroke="#131313" stroke-width="1.5" stroke-linecap="round" stroke-linejoin="round"/>
</g>
<defs>
<clipPath id="clip0_4006_7092">
<rect width="24" height="24" fill="white"/>
</clipPath>
</defs>
</svg>
